<?xml version="1.0" standalone="no"?>
<!DOCTYPE svg PUBLIC "-//W3C//DTD SVG 20010904//EN"
 "http://www.w3.org/TR/2001/REC-SVG-20010904/DTD/svg10.dtd">
<svg version="1.0" xmlns="http://www.w3.org/2000/svg"
 width="360.000000pt" height="450.000000pt" viewBox="0 0 360.000000 450.000000"
 preserveAspectRatio="xMidYMid meet">

<g transform="translate(0.000000,450.000000) scale(0.100000,-0.100000)"
fill="#000000" stroke="none">
<path d="M1803 3750 c-25 -31 -30 -54 -10 -47 6 2 11 11 9 19 -3 18 35 31 44
16 3 -5 12 -7 20 -4 8 3 23 -3 34 -14 27 -27 30 -25 30 14 0 33 -20 61 -27 39
-3 -8 -14 -8 -36 -2 -41 12 -38 13 -64 -21z"/>
<path d="M1852 3711 c-11 -7 -10 -10 3 -15 9 -3 23 -6 32 -6 13 0 13 2 -1 15
-17 17 -17 17 -34 6z"/>
<path d="M1790 3680 c0 -5 6 -10 14 -10 8 0 17 -6 19 -12 4 -8 6 -7 6 3 1 9
-6 20 -15 23 -21 8 -24 8 -24 -4z"/>
<path d="M1746 3664 c-4 -11 -3 -20 3 -22 6 -2 11 -9 11 -16 0 -16 36 -46 56
-46 23 0 13 33 -15 47 -14 6 -30 21 -36 33 -11 21 -12 21 -19 4z"/>
<path d="M1931 3654 c0 -11 3 -14 6 -6 3 7 2 16 -1 19 -3 4 -6 -2 -5 -13z"/>
<path d="M1616 2818 c-9 -30 -14 -58 -9 -58 2 0 11 7 20 16 9 8 22 13 29 10 7
-3 16 -1 19 4 8 13 35 1 35 -16 0 -8 5 -14 11 -14 5 0 2 13 -8 30 -17 29 -43
41 -43 19 0 -7 -10 -5 -25 5 -20 13 -26 14 -29 4z"/>
<path d="M1650 2769 c0 -6 -4 -7 -10 -4 -5 3 -10 1 -10 -4 0 -13 20 -14 38 -2
11 7 11 9 -2 14 -9 4 -16 2 -16 -4z"/>
<path d="M1695 2740 c-16 -7 -17 -9 -3 -9 9 -1 20 4 23 9 7 11 7 11 -20 0z"/>
<path d="M1713 2705 c-33 -20 -44 -45 -20 -45 17 0 60 45 56 57 -2 5 -18 0
-36 -12z"/>
<path d="M3356 1695 c-11 -8 -29 -12 -39 -9 -17 5 -19 2 -13 -37 7 -54 11 -57
28 -22 7 15 20 28 27 28 8 0 17 9 22 20 4 11 8 14 8 7 1 -9 8 -11 21 -7 14 5
20 2 20 -9 0 -9 5 -16 10 -16 19 0 10 19 -19 39 -34 25 -40 25 -65 6z"/>
<path d="M3380 1631 c0 -5 -10 -12 -22 -14 -16 -3 -13 -4 8 -4 18 1 31 6 31
14 0 7 -4 13 -9 13 -4 0 -8 -4 -8 -9z"/>
<path d="M3428 1626 c-16 -11 -16 -15 -3 -32 15 -19 15 -19 8 0 -4 11 -2 17 3
13 6 -3 11 3 11 14 2 22 3 22 -19 5z"/>
<path d="M3485 1609 c-4 -13 -16 -30 -26 -37 -22 -16 -25 -52 -4 -52 8 0 22
17 31 38 10 20 19 39 20 42 1 3 -1 12 -6 19 -6 10 -10 8 -15 -10z"/>
<path d="M3310 1571 c0 -5 5 -13 10 -16 6 -3 10 -2 10 4 0 5 -4 13 -10 16 -5
3 -10 2 -10 -4z"/>
<path d="M2562 618 c-7 -7 -12 -16 -12 -20 0 -5 -20 -28 -44 -52 -54 -52 -62
-78 -43 -143 29 -95 75 -159 99 -135 11 11 1 17 -24 13 -9 -1 -52 69 -45 75 2
3 22 -5 42 -18 21 -12 33 -24 27 -26 -7 -2 -10 -8 -6 -13 10 -16 23 -10 26 13
2 12 18 33 37 45 19 13 28 23 21 23 -7 0 -22 -8 -32 -17 -16 -14 -21 -15 -28
-4 -4 8 -15 11 -25 8 -16 -7 -69 15 -79 32 -4 5 -3 16 0 25 5 13 9 14 20 5 25
-20 29 19 5 51 -24 34 -16 43 36 38 22 -2 38 2 41 10 2 6 -2 12 -10 12 -22 1
55 39 80 40 13 0 22 -6 22 -15 0 -8 6 -15 13 -16 6 -1 1 -4 -13 -8 -15 -4 -25
-14 -25 -26 0 -26 25 -31 32 -6 3 12 9 21 13 21 12 0 30 -26 23 -33 -3 -4 8
-7 26 -7 24 0 34 -5 38 -20 7 -25 20 -26 25 -2 3 13 5 12 10 -7 5 -18 2 -24
-13 -28 -10 -3 -19 -12 -19 -20 0 -9 6 -13 14 -10 20 8 56 -21 56 -44 0 -10
-8 -26 -19 -35 -23 -20 -16 -54 10 -54 11 0 20 6 20 13 4 35 -4 96 -17 124 -8
18 -12 43 -9 56 9 35 -20 61 -59 53 -20 -4 -26 -3 -17 3 8 5 11 16 7 27 -6 17
-6 17 12 1 10 -9 28 -17 39 -17 19 0 20 4 13 34 -4 18 -10 39 -14 45 -11 18
-44 13 -56 -9 -9 -17 -17 -19 -53 -14 -23 4 -53 12 -67 19 -44 22 -66 25 -78
13z m176 -68 c-14 -22 -24 -19 -15 5 4 8 11 15 17 15 6 0 6 -7 -2 -20z"/>
<path d="M2623 563 c-18 -6 -16 -33 1 -33 19 0 31 19 20 30 -5 4 -15 5 -21 3z"/>
<path d="M2672 448 c3 -7 13 -15 24 -17 16 -3 17 -1 5 13 -16 19 -34 21 -29 4z"/>
<path d="M2614 425 c27 -21 53 -20 36 0 -7 8 -22 15 -34 15 -21 -1 -21 -1 -2
-15z"/>
<path d="M2666 395 c-7 -20 47 -21 64 0 10 12 10 15 -3 15 -9 0 -19 -5 -22
-10 -5 -8 -11 -8 -20 0 -9 8 -14 6 -19 -5z"/>
<path d="M2375 355 c-16 -15 -25 -36 -25 -55 0 -32 8 -38 28 -18 9 9 12 8 12
-5 0 -18 1 -19 43 -21 33 -2 34 1 2 26 -14 11 -25 27 -25 36 0 15 -2 15 -10 2
-9 -13 -11 -13 -20 0 -15 23 -12 32 9 25 13 -4 20 0 24 15 7 27 -9 25 -38 -5z"/>
<path d="M2389 218 c39 -58 108 -118 137 -118 27 0 54 25 54 49 0 25 -36 68
-71 86 -28 15 -29 15 -35 -12 -4 -16 -13 -37 -20 -48 -17 -24 -19 -12 -2 14 6
10 8 26 5 35 -7 18 -42 22 -52 6 -4 -6 -15 -1 -26 12 -11 13 -7 2 10 -24z
m157 -44 c-4 -15 -2 -32 5 -40 9 -11 8 -14 -5 -14 -9 0 -16 6 -16 14 0 18 -30
30 -44 16 -13 -13 -26 -13 -26 0 0 6 7 10 15 10 8 0 15 4 15 8 0 6 31 23 59
31 2 1 0 -11 -3 -25z"/>
<path d="M2646 225 c4 -8 8 -15 10 -15 2 0 4 7 4 15 0 8 -4 15 -10 15 -5 0 -7
-7 -4 -15z"/>
</g>
</svg>
