<svg width="441" height="441" xmlns="http://www.w3.org/2000/svg" version="1.1"><rect width="1" height="1" fill="#000000" x="0" y="0"></rect><rect width="1" height="1" fill="#000000" x="40" y="0"></rect><rect width="1" height="1" fill="#000000" x="80" y="0"></rect><rect width="1" height="1" fill="#000000" x="120" y="0"></rect><rect width="1" height="1" fill="#000000" x="160" y="0"></rect><rect width="1" height="1" fill="#000000" x="200" y="0"></rect><rect width="1" height="1" fill="#000000" x="240" y="0"></rect><rect width="1" height="1" fill="#000000" x="280" y="0"></rect><rect width="1" height="1" fill="#000000" x="320" y="0"></rect><rect width="1" height="1" fill="#000000" x="360" y="0"></rect><rect width="1" height="1" fill="#000000" x="400" y="0"></rect><rect width="1" height="1" fill="#000000" x="440" y="0"></rect><rect width="1" height="1" fill="#000000" x="0" y="40"></rect><rect width="1" height="1" fill="#000000" x="40" y="40"></rect><rect width="1" height="1" fill="#000000" x="80" y="40"></rect><rect width="1" height="1" fill="#000000" x="120" y="40"></rect><rect width="1" height="1" fill="#000000" x="160" y="40"></rect><rect width="1" height="1" fill="#000000" x="200" y="40"></rect><rect width="1" height="1" fill="#000000" x="240" y="40"></rect><rect width="1" height="1" fill="#000000" x="280" y="40"></rect><rect width="1" height="1" fill="#000000" x="320" y="40"></rect><rect width="1" height="1" fill="#000000" x="360" y="40"></rect><rect width="1" height="1" fill="#000000" x="400" y="40"></rect><rect width="1" height="1" fill="#000000" x="440" y="40"></rect><rect width="1" height="1" fill="#000000" x="0" y="80"></rect><rect width="1" height="1" fill="#000000" x="40" y="80"></rect><rect width="1" height="1" fill="#000000" x="80" y="80"></rect><rect width="1" height="1" fill="#000000" x="120" y="80"></rect><rect width="1" height="1" fill="#000000" x="160" y="80"></rect><rect width="1" height="1" fill="#000000" x="200" y="80"></rect><rect width="1" height="1" fill="#000000" x="240" y="80"></rect><rect width="1" height="1" fill="#000000" x="280" y="80"></rect><rect width="1" height="1" fill="#000000" x="320" y="80"></rect><rect width="1" height="1" fill="#000000" x="360" y="80"></rect><rect width="1" height="1" fill="#000000" x="400" y="80"></rect><rect width="1" height="1" fill="#000000" x="440" y="80"></rect><rect width="1" height="1" fill="#000000" x="0" y="120"></rect><rect width="1" height="1" fill="#000000" x="40" y="120"></rect><rect width="1" height="1" fill="#000000" x="80" y="120"></rect><rect width="1" height="1" fill="#000000" x="120" y="120"></rect><rect width="1" height="1" fill="#000000" x="160" y="120"></rect><rect width="1" height="1" fill="#000000" x="200" y="120"></rect><rect width="1" height="1" fill="#000000" x="240" y="120"></rect><rect width="1" height="1" fill="#000000" x="280" y="120"></rect><rect width="1" height="1" fill="#000000" x="320" y="120"></rect><rect width="1" height="1" fill="#000000" x="360" y="120"></rect><rect width="1" height="1" fill="#000000" x="400" y="120"></rect><rect width="1" height="1" fill="#000000" x="440" y="120"></rect><rect width="1" height="1" fill="#000000" x="0" y="160"></rect><rect width="1" height="1" fill="#000000" x="40" y="160"></rect><rect width="1" height="1" fill="#000000" x="80" y="160"></rect><rect width="1" height="1" fill="#000000" x="120" y="160"></rect><rect width="1" height="1" fill="#000000" x="160" y="160"></rect><rect width="1" height="1" fill="#000000" x="200" y="160"></rect><rect width="1" height="1" fill="#000000" x="240" y="160"></rect><rect width="1" height="1" fill="#000000" x="280" y="160"></rect><rect width="1" height="1" fill="#000000" x="320" y="160"></rect><rect width="1" height="1" fill="#000000" x="360" y="160"></rect><rect width="1" height="1" fill="#000000" x="400" y="160"></rect><rect width="1" height="1" fill="#000000" x="440" y="160"></rect><rect width="1" height="1" fill="#000000" x="0" y="200"></rect><rect width="1" height="1" fill="#000000" x="40" y="200"></rect><rect width="1" height="1" fill="#000000" x="80" y="200"></rect><rect width="1" height="1" fill="#000000" x="120" y="200"></rect><rect width="1" height="1" fill="#000000" x="160" y="200"></rect><rect width="1" height="1" fill="#000000" x="200" y="200"></rect><rect width="1" height="1" fill="#000000" x="240" y="200"></rect><rect width="1" height="1" fill="#000000" x="280" y="200"></rect><rect width="1" height="1" fill="#000000" x="320" y="200"></rect><rect width="1" height="1" fill="#000000" x="360" y="200"></rect><rect width="1" height="1" fill="#000000" x="400" y="200"></rect><rect width="1" height="1" fill="#000000" x="440" y="200"></rect><rect width="1" height="1" fill="#000000" x="0" y="240"></rect><rect width="1" height="1" fill="#000000" x="40" y="240"></rect><rect width="1" height="1" fill="#000000" x="80" y="240"></rect><rect width="1" height="1" fill="#000000" x="120" y="240"></rect><rect width="1" height="1" fill="#000000" x="160" y="240"></rect><rect width="1" height="1" fill="#000000" x="200" y="240"></rect><rect width="1" height="1" fill="#000000" x="240" y="240"></rect><rect width="1" height="1" fill="#000000" x="280" y="240"></rect><rect width="1" height="1" fill="#000000" x="320" y="240"></rect><rect width="1" height="1" fill="#000000" x="360" y="240"></rect><rect width="1" height="1" fill="#000000" x="400" y="240"></rect><rect width="1" height="1" fill="#000000" x="440" y="240"></rect><rect width="1" height="1" fill="#000000" x="0" y="280"></rect><rect width="1" height="1" fill="#000000" x="40" y="280"></rect><rect width="1" height="1" fill="#000000" x="80" y="280"></rect><rect width="1" height="1" fill="#000000" x="120" y="280"></rect><rect width="1" height="1" fill="#000000" x="160" y="280"></rect><rect width="1" height="1" fill="#000000" x="200" y="280"></rect><rect width="1" height="1" fill="#000000" x="240" y="280"></rect><rect width="1" height="1" fill="#000000" x="280" y="280"></rect><rect width="1" height="1" fill="#000000" x="320" y="280"></rect><rect width="1" height="1" fill="#000000" x="360" y="280"></rect><rect width="1" height="1" fill="#000000" x="400" y="280"></rect><rect width="1" height="1" fill="#000000" x="440" y="280"></rect><rect width="1" height="1" fill="#000000" x="0" y="320"></rect><rect width="1" height="1" fill="#000000" x="40" y="320"></rect><rect width="1" height="1" fill="#000000" x="80" y="320"></rect><rect width="1" height="1" fill="#000000" x="120" y="320"></rect><rect width="1" height="1" fill="#000000" x="160" y="320"></rect><rect width="1" height="1" fill="#000000" x="200" y="320"></rect><rect width="1" height="1" fill="#000000" x="240" y="320"></rect><rect width="1" height="1" fill="#000000" x="280" y="320"></rect><rect width="1" height="1" fill="#000000" x="320" y="320"></rect><rect width="1" height="1" fill="#000000" x="360" y="320"></rect><rect width="1" height="1" fill="#000000" x="400" y="320"></rect><rect width="1" height="1" fill="#000000" x="440" y="320"></rect><rect width="1" height="1" fill="#000000" x="0" y="360"></rect><rect width="1" height="1" fill="#000000" x="40" y="360"></rect><rect width="1" height="1" fill="#000000" x="80" y="360"></rect><rect width="1" height="1" fill="#000000" x="120" y="360"></rect><rect width="1" height="1" fill="#000000" x="160" y="360"></rect><rect width="1" height="1" fill="#000000" x="200" y="360"></rect><rect width="1" height="1" fill="#000000" x="240" y="360"></rect><rect width="1" height="1" fill="#000000" x="280" y="360"></rect><rect width="1" height="1" fill="#000000" x="320" y="360"></rect><rect width="1" height="1" fill="#000000" x="360" y="360"></rect><rect width="1" height="1" fill="#000000" x="400" y="360"></rect><rect width="1" height="1" fill="#000000" x="440" y="360"></rect><rect width="1" height="1" fill="#000000" x="0" y="400"></rect><rect width="1" height="1" fill="#000000" x="40" y="400"></rect><rect width="1" height="1" fill="#000000" x="80" y="400"></rect><rect width="1" height="1" fill="#000000" x="120" y="400"></rect><rect width="1" height="1" fill="#000000" x="160" y="400"></rect><rect width="1" height="1" fill="#000000" x="200" y="400"></rect><rect width="1" height="1" fill="#000000" x="240" y="400"></rect><rect width="1" height="1" fill="#000000" x="280" y="400"></rect><rect width="1" height="1" fill="#000000" x="320" y="400"></rect><rect width="1" height="1" fill="#000000" x="360" y="400"></rect><rect width="1" height="1" fill="#000000" x="400" y="400"></rect><rect width="1" height="1" fill="#000000" x="440" y="400"></rect><rect width="1" height="1" fill="#000000" x="0" y="440"></rect><rect width="1" height="1" fill="#000000" x="40" y="440"></rect><rect width="1" height="1" fill="#000000" x="80" y="440"></rect><rect width="1" height="1" fill="#000000" x="120" y="440"></rect><rect width="1" height="1" fill="#000000" x="160" y="440"></rect><rect width="1" height="1" fill="#000000" x="200" y="440"></rect><rect width="1" height="1" fill="#000000" x="240" y="440"></rect><rect width="1" height="1" fill="#000000" x="280" y="440"></rect><rect width="1" height="1" fill="#000000" x="320" y="440"></rect><rect width="1" height="1" fill="#000000" x="360" y="440"></rect><rect width="1" height="1" fill="#000000" x="400" y="440"></rect><rect width="1" height="1" fill="#000000" x="440" y="440"></rect></svg>